<svg xmlns="http://www.w3.org/2000/svg" enable-background="new 0 0 28 28" viewBox="0 0 28 28"><path fill="#FFE577" d="M23.013,7.048c2.452,2.163,4.467,15.225-0.963,15.964c-5.286,0.719-18.052,2.486-18.169-3.651S2.112,7.421,8.994,6.311C13.816,5.533,20.511,4.84,23.013,7.048z"/><path d="M5.343,18.88c-0.047,0-0.093-0.006-0.139-0.02l-2.843-0.82C2.147,17.978,2,17.782,2,17.56v-6.559c0-0.109,0.035-0.215,0.102-0.302l2.153-2.848C4.309,7.78,4.382,7.724,4.465,7.69l7.743-3.153V2.5c0-0.188,0.105-0.361,0.274-0.446c0.169-0.084,0.369-0.068,0.521,0.042l7.063,5.178c0.16,0.118,0.235,0.319,0.192,0.513c-0.044,0.194-0.198,0.344-0.393,0.381L5.843,10.896v7.484c0,0.157-0.074,0.305-0.199,0.399C5.556,18.845,5.45,18.88,5.343,18.88z M3,17.184l1.843,0.532v-7.232c0-0.239,0.17-0.445,0.404-0.491l13.307-2.587l-5.346-3.919v1.387c0,0.203-0.123,0.386-0.312,0.463L4.969,8.564L3,11.169V17.184z"/><path d="M11.071,26c-0.148,0-0.293-0.066-0.39-0.187l-5.729-7.12c-0.127-0.158-0.146-0.378-0.048-0.556c0.099-0.178,0.283-0.283,0.497-0.254l13.87,1.659V7.678c0-0.245,0.177-0.453,0.418-0.493l5.728-0.95c0.145-0.022,0.293,0.017,0.405,0.112C25.936,6.442,26,6.582,26,6.729v14.068c0,0.146-0.064,0.285-0.176,0.38l-5.514,4.704c-0.133,0.114-0.317,0.148-0.48,0.095l-8.259-2.718V25.5c0,0.212-0.134,0.401-0.334,0.472C11.183,25.991,11.127,26,11.071,26z M11.071,22.066c0.053,0,0.105,0.008,0.156,0.025l8.648,2.846L25,20.566V7.318l-4.728,0.784v12.004c0,0.143-0.062,0.279-0.168,0.374c-0.106,0.094-0.252,0.139-0.392,0.123L6.501,19.022l4.07,5.059v-1.515c0-0.16,0.077-0.311,0.207-0.405C10.864,22.098,10.968,22.066,11.071,22.066z"/></svg>